<?xml version="1.0" standalone="no"?>
<!DOCTYPE svg PUBLIC "-//W3C//DTD SVG 20010904//EN"
 "http://www.w3.org/TR/2001/REC-SVG-20010904/DTD/svg10.dtd">
<svg version="1.0" xmlns="http://www.w3.org/2000/svg"
 width="247.000000pt" height="246.000000pt" viewBox="0 0 247.000000 246.000000"
 preserveAspectRatio="xMidYMid meet">
<metadata>
Created by potrace 1.15, written by Peter Selinger 2001-2017
</metadata>
<g transform="translate(0.000000,246.000000) scale(0.100000,-0.100000)"
fill="#000000" stroke="none">
<path d="M565 2266 c-43 -19 -94 -74 -106 -116 -6 -23 -9 -266 -7 -701 l3
-665 26 -40 c36 -54 98 -95 154 -102 l45 -5 0 35 c0 30 -5 38 -29 48 -16 6
-42 25 -57 41 l-29 30 -3 637 c-2 622 -2 638 18 670 11 18 34 41 52 52 32 20
48 20 465 18 430 -3 431 -3 462 -25 22 -17 44 -23 81 -23 27 0 50 4 50 8 0 12
-52 83 -76 104 -53 47 -66 48 -556 48 -360 -1 -470 -4 -493 -14z"/>
<path d="M875 2026 c-40 -17 -84 -63 -101 -103 -11 -26 -14 -170 -14 -770 0
-725 0 -737 21 -780 23 -47 120 -119 174 -129 16 -3 251 -4 520 -2 l490 3 61
39 c33 21 71 55 85 74 l24 36 3 735 c2 405 0 751 -3 769 -8 42 -59 100 -110
123 -37 17 -79 19 -580 18 -426 0 -546 -3 -570 -13z m1055 -134 c19 -9 45 -32
57 -51 l23 -35 -2 -692 -3 -693 -29 -30 -30 -31 -491 0 -491 0 -30 31 -29 30
-3 692 c-2 677 -2 693 18 725 11 18 34 41 52 52 32 19 52 20 478 20 404 0 448
-2 480 -18z"/>
</g>
</svg>
