<?xml version="1.0" standalone="no"?>
<!DOCTYPE svg PUBLIC "-//W3C//DTD SVG 20010904//EN"
 "http://www.w3.org/TR/2001/REC-SVG-20010904/DTD/svg10.dtd">
<svg version="1.0" xmlns="http://www.w3.org/2000/svg"
 width="397.000000pt" height="222.000000pt" viewBox="0 0 397.000000 222.000000"
 preserveAspectRatio="xMidYMid meet">
<metadata>
Created by potrace 1.15, written by Peter Selinger 2001-2017
</metadata>
<g transform="translate(0.000000,222.000000) scale(0.100000,-0.100000)"
fill="#000000" stroke="none">
<path d="M3295 2096 c-477 -231 -2662 -1320 -2671 -1332 -6 -8 -16 -14 -23
-14 -6 0 -14 -6 -17 -13 -2 -7 -61 -62 -131 -123 -145 -126 -278 -259 -311
-312 -30 -50 -26 -98 11 -126 26 -19 44 -21 200 -24 214 -5 515 14 537 32 8 8
632 315 1387 684 1226 600 1497 738 1518 772 11 17 -16 201 -36 256 -26 68
-96 134 -221 207 -53 31 -100 57 -105 56 -4 0 -66 -29 -138 -63z m-2532 -1499
c74 -52 97 -89 97 -158 0 -67 -33 -209 -51 -220 -8 -5 -32 -9 -55 -9 -22 0
-88 -3 -146 -6 l-105 -7 5 79 c5 92 -6 112 -88 167 l-49 33 122 106 122 107
45 -26 c25 -14 71 -44 103 -66z"/>
</g>
</svg>
