<?xml version="1.0" standalone="no"?>
<!DOCTYPE svg PUBLIC "-//W3C//DTD SVG 20010904//EN"
 "http://www.w3.org/TR/2001/REC-SVG-20010904/DTD/svg10.dtd">
<svg version="1.0" xmlns="http://www.w3.org/2000/svg"
 width="216.000000pt" height="213.000000pt" viewBox="0 0 216.000000 213.000000"
 preserveAspectRatio="xMidYMid meet">
<metadata>
Created by potrace 1.15, written by Peter Selinger 2001-2017
</metadata>
<g transform="translate(0.000000,213.000000) scale(0.100000,-0.100000)"
fill="#000000" stroke="none">
<path d="M1030 2073 c-43 -16 -90 -90 -90 -143 0 -17 7 -47 15 -67 20 -47 20
-47 -19 -65 -18 -9 -50 -31 -70 -48 l-36 -32 0 -109 0 -109 35 0 35 0 0 104 0
104 57 36 c49 31 66 36 115 36 50 0 66 -5 113 -36 l55 -37 0 -103 0 -104 35 0
35 0 0 101 c0 55 -5 109 -10 119 -6 10 -37 38 -70 61 -33 23 -60 43 -60 44 0
2 7 16 15 31 25 49 19 115 -15 162 -16 23 -38 46 -49 51 -21 12 -66 13 -91 4z
m71 -53 c27 -15 49 -63 49 -107 0 -43 -5 -52 -40 -76 -35 -24 -57 -21 -91 12
-70 71 -1 215 82 171z"/>
<path d="M1050 1330 l0 -140 -335 0 -335 0 0 -215 0 -215 25 0 25 0 0 190 0
190 615 0 615 0 0 -200 0 -200 25 0 25 0 0 225 0 225 -305 0 -305 0 0 140 0
140 -25 0 -25 0 0 -140z"/>
<path d="M343 720 c-37 -22 -73 -86 -73 -130 0 -17 7 -47 15 -67 20 -47 20
-47 -19 -65 -18 -9 -50 -31 -70 -48 l-36 -32 0 -109 0 -109 35 0 35 0 0 98 c0
53 4 102 8 108 4 6 29 26 56 43 41 26 60 31 108 31 50 0 66 -5 113 -36 l55
-37 0 -103 0 -104 35 0 35 0 0 101 c0 55 -5 109 -10 119 -6 10 -37 38 -70 61
-33 23 -60 43 -60 44 0 2 7 16 15 31 25 49 19 115 -15 162 -48 66 -96 79 -157
42z m88 -40 c27 -15 49 -63 49 -107 0 -43 -5 -52 -40 -76 -35 -24 -57 -21 -91
12 -70 71 -1 215 82 171z"/>
<path d="M1626 699 c-34 -27 -66 -89 -66 -129 0 -17 7 -47 15 -67 20 -47 20
-47 -19 -65 -18 -9 -50 -31 -70 -48 l-36 -32 0 -109 0 -109 35 0 35 0 0 104 0
104 57 36 c49 31 66 36 115 36 50 0 66 -5 113 -36 l55 -37 0 -103 0 -104 35 0
35 0 0 101 c0 55 -5 109 -10 119 -6 10 -37 38 -70 61 -33 23 -60 43 -60 44 0
2 7 16 15 31 25 49 19 115 -15 162 -16 23 -38 46 -49 51 -32 18 -86 13 -115
-10z m95 -39 c27 -15 49 -63 49 -107 0 -43 -5 -52 -40 -76 -35 -24 -57 -21
-91 12 -70 71 -1 215 82 171z"/>
</g>
</svg>
