<?xml version="1.0" standalone="no"?>
<!DOCTYPE svg PUBLIC "-//W3C//DTD SVG 20010904//EN"
 "http://www.w3.org/TR/2001/REC-SVG-20010904/DTD/svg10.dtd">
<svg version="1.0" xmlns="http://www.w3.org/2000/svg"
 width="216.000000pt" height="213.000000pt" viewBox="0 0 216.000000 213.000000"
 preserveAspectRatio="xMidYMid meet">
<metadata>
Created by potrace 1.15, written by Peter Selinger 2001-2017
</metadata>
<g transform="translate(0.000000,213.000000) scale(0.100000,-0.100000)"
fill="#000000" stroke="none">
<path d="M932 1949 c-42 -13 -108 -78 -117 -117 l-6 -30 -93 -4 c-104 -3 -142
-21 -187 -86 l-24 -36 -3 -549 c-2 -535 -2 -551 18 -592 11 -24 39 -55 64 -73
l44 -32 366 0 366 0 39 28 c21 15 49 42 62 61 l24 35 3 535 c2 295 0 551 -3
569 -3 18 -20 49 -38 69 -45 52 -98 73 -183 73 l-71 0 -12 39 c-27 90 -141
141 -249 110z m122 -83 c44 -18 63 -64 46 -106 -31 -75 -159 -81 -196 -9 -19
38 -18 52 7 83 36 46 84 57 143 32z m-394 -236 l0 -70 335 0 335 0 0 70 c0 39
3 70 7 70 4 0 17 -10 30 -22 l23 -21 0 -548 0 -547 -31 -26 -31 -26 -333 0
-334 0 -36 31 -35 31 0 533 0 533 26 31 c14 17 30 31 35 31 5 0 9 -31 9 -70z"/>
</g>
</svg>
