<?xml version="1.0" standalone="no"?>
<!DOCTYPE svg PUBLIC "-//W3C//DTD SVG 20010904//EN"
 "http://www.w3.org/TR/2001/REC-SVG-20010904/DTD/svg10.dtd">
<svg version="1.0" xmlns="http://www.w3.org/2000/svg"
 width="447.000000pt" height="501.000000pt" viewBox="0 0 447.000000 501.000000"
 preserveAspectRatio="xMidYMid meet">
<metadata>
Created by potrace 1.15, written by Peter Selinger 2001-2017
</metadata>
<g transform="translate(0.000000,501.000000) scale(0.100000,-0.100000)"
fill="#000000" stroke="none">
<path d="M2073 4150 c-179 -19 -392 -88 -753 -244 l-235 -101 -152 -3 -153 -3
0 -199 0 -200 1350 0 1350 0 0 200 0 200 -120 0 -120 0 -153 69 c-540 244
-768 308 -1014 281z"/>
<path d="M990 2003 c0 -1284 0 -1297 20 -1339 12 -24 39 -54 62 -70 l41 -29
1011 0 1011 0 36 24 c20 14 47 41 60 60 l24 35 3 1308 2 1308 -1135 0 -1135 0
0 -1297z"/>
</g>
</svg>
