<?xml version="1.0" standalone="no"?>
<!DOCTYPE svg PUBLIC "-//W3C//DTD SVG 20010904//EN"
 "http://www.w3.org/TR/2001/REC-SVG-20010904/DTD/svg10.dtd">
<svg version="1.0" xmlns="http://www.w3.org/2000/svg"
 width="399.000000pt" height="369.000000pt" viewBox="0 0 399.000000 369.000000"
 preserveAspectRatio="xMidYMid meet">
<metadata>
Created by potrace 1.15, written by Peter Selinger 2001-2017
</metadata>
<g transform="translate(0.000000,369.000000) scale(0.100000,-0.100000)"
fill="#000000" stroke="none">
<path d="M1465 3476 c-40 -17 -84 -63 -101 -103 -10 -22 -14 -77 -14 -173 l0
-140 25 0 25 0 0 138 c0 154 10 184 72 222 32 19 52 20 503 20 524 0 516 1
562 -69 21 -31 23 -45 23 -172 l0 -139 25 0 25 0 0 139 c0 77 -5 152 -11 168
-15 40 -57 82 -104 104 -37 17 -74 19 -520 18 -376 0 -487 -3 -510 -13z"/>
<path d="M260 2955 l0 -25 125 0 125 0 0 -1202 c0 -1188 0 -1202 20 -1244 12
-24 39 -54 62 -70 l41 -29 1306 0 1306 0 36 24 c20 14 47 41 60 60 l24 35 3
1213 2 1213 100 0 c100 0 100 0 100 25 l0 25 -1655 0 -1655 0 0 -25z m3058
-1234 l-3 -1209 -25 -27 c-54 -58 30 -55 -1350 -55 -1380 0 -1296 -3 -1350 55
l-25 27 -3 1209 -2 1209 1380 0 1380 0 -2 -1209z"/>
<path d="M2710 1675 l0 -855 25 0 25 0 0 855 0 855 -25 0 -25 0 0 -855z"/>
<path d="M1000 1615 l0 -885 25 0 25 0 0 885 0 885 -25 0 -25 0 0 -885z"/>
<path d="M1837 2494 c-4 -4 -7 -389 -7 -856 l0 -848 25 0 25 0 -2 852 c-3 761
-5 853 -18 856 -9 1 -19 0 -23 -4z"/>
</g>
</svg>
